Coordinates
version=1
nRows=17
nColumns=24
inDegrees=yes

Units are S.I. units (second, meters, Newtons, ...)
If the header above contains a line with 'inDegrees', this indicates whether rotational values are in degrees (yes) or radians (no).

endheader
time	pelvis_tilt	pelvis_list	pelvis_rotation	pelvis_tx	pelvis_ty	pelvis_tz	hip_flexion_r	hip_adduction_r	hip_rotation_r	knee_angle_r	ankle_angle_r	subtalar_angle_r	mtp_angle_r	hip_flexion_l	hip_adduction_l	hip_rotation_l	knee_angle_l	ankle_angle_l	subtalar_angle_l	mtp_angle_l	lumbar_extension	lumbar_bending	lumbar_rotation
      1.99000000	      1.85895137	      0.56495695	     -1.47484967	      0.34212631	      0.91568953	     -0.01057755	     20.26200932	     -1.16477798	      2.44286888	    -35.10280782	     16.17606992	      0.00000000	      0.00000000	     21.42656319	     -1.13504015	      2.36333330	    -38.36938103	     15.68327629	      0.00000000	      0.00000000	    -37.14049961	     -2.44669863	      0.31968468
      2.00000000	      2.07711722	      0.65847771	     -1.41618290	      0.34614130	      0.92076965	     -0.01067365	     18.71854902	     -1.33284926	      2.41732258	    -33.06728477	     15.41633592	      0.00000000	      0.00000000	     19.88444793	     -1.02454896	      2.47176090	    -36.33318401	     14.96844738	      0.00000000	      0.00000000	    -36.61277416	     -2.44875296	      0.28204531
      2.01000000	      2.04707637	      0.76442724	     -1.36580675	      0.34997727	      0.92516562	     -0.01085291	     17.51570086	     -1.51692801	      2.35775109	    -31.12771397	     14.60522714	      0.00000000	      0.00000000	     18.67560620	     -0.90202334	      2.59818100	    -34.39049064	     14.20399036	      0.00000000	      0.00000000	    -35.78042867	     -2.45903434	      0.21731663
      2.02000000	      2.52571080	      0.81870066	     -1.27904709	      0.35403804	      0.93007185	     -0.01106775	     15.67544148	     -1.67266704	      2.23490453	    -29.07143316	     13.88172557	      0.00000000	      0.00000000	     16.85749961	     -0.81594474	      2.77341507	    -32.36296622	     13.54734808	      0.00000000	      0.00000000	    -35.53713823	     -2.41032162	      0.22513435
      2.03000000	      2.77352625	      0.85680928	     -1.21694888	      0.35791004	      0.93430314	     -0.01129362	     14.15990596	     -1.79908839	      2.10825119	    -27.11633232	     13.10893369	      0.00000000	      0.00000000	     15.36750268	     -0.75810166	      2.96022389	    -30.45589851	     12.87146349	      0.00000000	      0.00000000	    -35.02653679	     -2.35397128	      0.15043221
      2.04000000	      3.01069332	      0.88454106	     -1.13493866	      0.36168109	      0.93821849	     -0.01159738	     12.69543725	     -1.92315971	      1.91723705	    -25.22284768	     12.31070612	      0.00000000	      0.00000000	     13.93024013	     -0.70987340	      3.16000766	    -28.60808992	     12.19148034	      0.00000000	      0.00000000	    -34.49772163	     -2.27198881	      0.08983534
      2.05000000	      3.28126460	      0.88523604	     -1.06789528	      0.36540697	      0.94192308	     -0.01187563	     11.20534444	     -2.00983289	      1.73267536	    -23.33666782	     11.51613186	      0.00000000	      0.00000000	     12.48405065	     -0.69199534	      3.38875827	    -26.80891413	     11.53967367	      0.00000000	      0.00000000	    -33.97299387	     -2.17129366	      0.01403110
      2.06000000	      3.57886575	      0.86386840	     -0.99543895	      0.36905437	      0.94533726	     -0.01215578	      9.72149430	     -2.07083741	      1.49790756	    -21.50944860	     10.76140394	      0.00000000	      0.00000000	     11.04649866	     -0.70685101	      3.59930226	    -25.07001777	     10.94687615	      0.00000000	      0.00000000	    -33.51676775	     -2.05000042	     -0.06873015
      2.07000000	      3.87094339	      0.83270758	     -0.92837332	      0.37261310	      0.94851023	     -0.01246169	      8.26561143	     -2.11585120	      1.26363201	    -19.70434817	      9.97614760	      0.00000000	      0.00000000	      9.64705654	     -0.73323476	      3.82538883	    -23.38101046	     10.35200511	      0.00000000	      0.00000000	    -33.04405609	     -1.92511997	     -0.15964104
      2.08000000	      4.14419155	      0.78779292	     -0.84045197	      0.37610140	      0.95141438	     -0.01280161	      6.85413396	     -2.14596293	      0.95072219	    -17.93553855	      9.17603847	      0.00000000	      0.00000000	      8.31331267	     -0.77594841	      4.07657553	    -21.76720325	      9.77122963	      0.00000000	      0.00000000	    -32.53818651	     -1.76391980	     -0.21656380
      2.09000000	      4.44780595	      0.73205680	     -0.75478095	      0.37951777	      0.95414988	     -0.01314514	      5.41550365	     -2.15543060	      0.64692393	    -16.16482253	      8.37403343	      0.00000000	      0.00000000	      6.96492360	     -0.83546627	      4.31132081	    -20.17227644	      9.21802082	      0.00000000	      0.00000000	    -32.07661834	     -1.60975743	     -0.26954614
      2.10000000	      4.33433160	      0.71457619	     -0.72020797	      0.38266170	      0.95607063	     -0.01344610	      4.56032434	     -2.18613741	      0.47138440	    -14.60734408	      7.63014162	      0.00000000	      0.00000000	      6.16332349	     -0.86872153	      4.43358119	    -18.73068589	      8.65412151	      0.00000000	      0.00000000	    -31.06866790	     -1.54099910	     -0.38525614
      2.11000000	      5.02741324	      0.61226035	     -0.59960189	      0.38616108	      0.95895877	     -0.01381710	      2.62836441	     -2.13888509	      0.03537352	    -12.71596993	      6.78795716	      0.00000000	      0.00000000	      4.38203770	     -0.98330858	      4.75090981	    -17.12799731	      8.17150408	      0.00000000	      0.00000000	    -31.13481652	     -1.30650988	     -0.33281985
      2.12000000	      5.30258165	      0.56413386	     -0.53293199	      0.38936761	      0.96106637	     -0.01415020	      1.29096771	     -2.13231929	     -0.29620791	    -11.05314615	      5.98267862	      0.00000000	      0.00000000	      3.14406148	     -1.05442446	      4.92216991	    -15.66171210	      7.65532214	      0.00000000	      0.00000000	    -30.64940779	     -1.19452252	     -0.39170021
      2.13000000	      5.52540197	      0.50864277	     -0.44997549	      0.39251425	      0.96294154	     -0.01448951	      0.03104921	     -2.10787345	     -0.65864037	     -9.43264771	      5.17481510	      0.00000000	      0.00000000	      1.99943132	     -1.13753388	      5.09652888	    -14.25755565	      7.16215597	      0.00000000	      0.00000000	    -30.11728552	     -1.06694341	     -0.39767161
      2.14000000	      5.71565917	      0.46202766	     -0.36839780	      0.39558623	      0.96460046	     -0.01484402	     -1.16180909	     -2.08263948	     -1.01999114	     -7.86818679	      4.38537235	      0.00000000	      0.00000000	      0.92999645	     -1.21414788	      5.25642350	    -12.92013087	      6.67685140	      0.00000000	      0.00000000	    -29.56027324	     -0.94454592	     -0.38276498
      2.15000000	      5.64264682	      0.44507851	     -0.31316573	      0.39843927	      0.96581588	     -0.01515512	     -1.98091297	     -2.08456247	     -1.32184384	     -6.43808769	      3.57105118	      0.00000000	      0.00000000	      0.21303995	     -1.26604206	      5.34082688	    -11.68508380	      6.15578088	      0.00000000	      0.00000000	    -28.70203636	     -0.90281708	     -0.42311752
